<?xml version="1.0" encoding="UTF-8"?>
<svg xmlns="http://www.w3.org/2000/svg" xmlns:xlink="http://www.w3.org/1999/xlink" version="1.1" viewBox="0 0 190 30">
  <!-- Generator: Adobe Illustrator 29.0.0, SVG Export Plug-In . SVG Version: 2.1.0 Build 186)  -->
  <defs>
    <style>
      .st0 {
        fill: url(#linear-gradient2);
      }

      .st1 {
        fill: url(#linear-gradient9);
      }

      .st2 {
        fill: url(#linear-gradient6);
      }

      .st3 {
        fill: url(#linear-gradient8);
      }

      .st4 {
        fill: url(#linear-gradient4);
      }

      .st5 {
        fill: url(#linear-gradient1);
      }

      .st5, .st6, .st7, .st8, .st9, .st10 {
        mix-blend-mode: screen;
      }

      .st6 {
        fill: url(#linear-gradient7);
      }

      .st7 {
        fill: url(#linear-gradient3);
      }

      .st8 {
        fill: url(#linear-gradient5);
      }

      .st11 {
        fill: url(#linear-gradient);
      }

      .st12 {
        isolation: isolate;
      }

      .st9 {
        fill: url(#linear-gradient10);
      }

      .st13 {
        fill: #fff;
      }

      .st14 {
        opacity: .3;
      }

      .st14, .st15, .st16, .st17, .st18 {
        mix-blend-mode: overlay;
      }

      .st15 {
        opacity: .5;
      }

      .st16 {
        opacity: .2;
      }

      .st17 {
        opacity: .1;
      }

      .st18 {
        opacity: 0;
      }

      .st10 {
        opacity: .6;
      }
    </style>
    <linearGradient id="linear-gradient" x1="15.1" y1="-.8" x2="16.4" y2="3.9" gradientUnits="userSpaceOnUse">
      <stop offset="0" stop-color="#5e5e5e"/>
      <stop offset="1" stop-color="#4d4d4d"/>
    </linearGradient>
    <linearGradient id="linear-gradient1" x1="15.8" y1="-.7" x2="16.4" y2="3.6" gradientUnits="userSpaceOnUse">
      <stop offset="0" stop-color="#fff"/>
      <stop offset="0" stop-color="#f8f8f8"/>
      <stop offset="0" stop-color="#c5c5c5"/>
      <stop offset=".2" stop-color="#969696"/>
      <stop offset=".3" stop-color="#6d6d6d"/>
      <stop offset=".3" stop-color="#4b4b4b"/>
      <stop offset=".4" stop-color="#303030"/>
      <stop offset=".5" stop-color="#1a1a1a"/>
      <stop offset=".7" stop-color="#0b0b0b"/>
      <stop offset=".8" stop-color="#020202"/>
      <stop offset="1" stop-color="#000"/>
    </linearGradient>
    <linearGradient id="linear-gradient2" x1="10.6" y1="4.9" x2="15.8" y2="18.3" gradientUnits="userSpaceOnUse">
      <stop offset="0" stop-color="#919191"/>
      <stop offset=".4" stop-color="#7d7d7d"/>
      <stop offset="1" stop-color="#5e5e5e"/>
    </linearGradient>
    <linearGradient id="linear-gradient3" x1="11.1" y1="5.6" x2="13.9" y2="13.2" xlink:href="#linear-gradient1"/>
    <linearGradient id="linear-gradient4" x1="11.1" y1="12.6" x2="13.6" y2="25.8" gradientUnits="userSpaceOnUse">
      <stop offset="0" stop-color="#767676"/>
      <stop offset="1" stop-color="#373737"/>
    </linearGradient>
    <linearGradient id="linear-gradient5" x1="9.6" y1="10.9" x2="12.6" y2="19.3" xlink:href="#linear-gradient1"/>
    <linearGradient id="linear-gradient6" x1="13.9" y1="17.7" x2="5.8" y2="31.5" xlink:href="#linear-gradient4"/>
    <linearGradient id="linear-gradient7" x1="20.3" y1="29.3" x2="9.9" y2="24.5" xlink:href="#linear-gradient1"/>
    <linearGradient id="linear-gradient8" x1="17.1" y1="2.8" x2="26.4" y2="14.1" gradientUnits="userSpaceOnUse">
      <stop offset="0" stop-color="#c7c7c7"/>
      <stop offset="1" stop-color="#656565"/>
    </linearGradient>
    <linearGradient id="linear-gradient9" x1="16.5" y1=".2" x2="23.6" y2="14.4" xlink:href="#linear-gradient8"/>
    <linearGradient id="linear-gradient10" x1="-1384.2" y1="1666.5" x2="-1377.4" y2="1674.8" gradientTransform="translate(-543 2100.2) rotate(155.5)" xlink:href="#linear-gradient8"/>
  </defs>
  <g class="st12">
    <g id="_레이어_1" data-name="레이어_1">
      <g>
        <path class="st11" d="M18.1.9c0,.5-.4.9-.8.9-.5,0-1,.4-1.3,1.5-.2.5-.3,1.2-.4,2-.1,1.2-.3,1.8-.4,2.1-.1.3-.2.1-.3-.2-.2-.8-.3-2.5-.3-2.5,0,0,0-2.7,1.1-4,0,0,0,0,0,0C16,.3,16.5,0,17.2,0c.4,0,.8.3.9.7,0,0,0,.2,0,.2Z"/>
        <path class="st5" d="M17.9,1c0,.4-.3.8-.8.8-.4,0-.9.4-1.2,1.3-.2.5-.3,1.1-.4,1.8-.1,1.1-.3,1.6-.4,1.9-.1.2-.2,0-.3-.2-.2-.7-.3-2.3-.3-2.3,0,0,0-2.4,1-3.6,0,0,0,0,0,0,.4-.4.8-.6,1.5-.6.4,0,.7.3.8.6,0,0,0,.1,0,.2Z"/>
        <path class="st16" d="M17.4,4.6c0,.2-.2.5-.2.7,0,.3-.1.6-.2.9,0,0,0,.1,0,.2,0,0,0,.1,0,.2,0,.1,0,.2,0,.3,0,.2,0,.3,0,.5,0,0,0,0,0,0h0c0,.1,0,.3,0,.4,0,.4-.1.7-.2.8,0,0-.2-.1-.3-.2-.1-.4-.2-1.1-.2-1.7,0-.3,0-.5,0-.6,0-.1,0-.2,0-.2h0c0,0,.1,0,.2,0,.1,0,.2,0,.3.1,0,0,0,0,0,0,0,0,0,0,0,0,0,0,0,0,0,0,0,0,0,0,0,0,0,0,0,0,0,0,0,0,0,0,0-.1,0,0,0,0,0-.1,0-.2,0-.3,0-.5h0c0-.1,0-.2,0-.2h0s0,0,0,0c0,0,0,0,0,0,0,0,0,0,0,0h0c0,0,0,0,0,0,0,0,0,0,0,0,0,0,0,0,0,0,0,0,0,0,0,0h0s0,0,0,0c0,0,0,0,0,0,0,0,0,0,0,0h0s0,0,0,0c0,0,0,0,0,0,0,0,0,0,0,0h0s0,0,0,0c0,0,0,0,0,0,0,0,0,0,0,0,0,0,0,0,0,0,0,0,0,0,0,0,0,0,0,0,0,0h0s0,0,0-.1c0,0,0,0,0,0,0,0,0,0,0,0t0,0c0,.2,0,.3.1.4,0,0,0,0,0,0h0c0,0,.1.1.2.1.1,0,.3,0,.5,0Z"/>
        <path class="st0" d="M23.5,12.7h-.9s-.6,0-.6,0h-2.1c0,0-2.6.2-2.6.2l-13,.5h0c.6-2.4,2-5.2,4.3-6.7,1.6-1,3.4-1.4,5.2-1.3.1,0,.2,0,.4,0,0,0,.2,0,.3,0,0,0,.1,0,.2,0,0,0,0,0,.1,0,0,0,.1,0,.2,0,0,0,0,0,0,0,.1,0,.2,0,.3,0,0,0,.1,0,.2,0,0,0,0,0,0,0,0,0,0,0,0,0,0,0,0,0,0,0,0,0,.1,0,.2,0,0,0,.2,0,.2,0,0,0,0,0,.1,0,0,0,.1,0,.2,0,.1,0,.2,0,.3.1,0,0,0,0,0,0,0,0,0,0,0,0h0s0,0,0,0c.1,0,.2,0,.3.1,0,0,.1,0,.2,0,0,0,.2,0,.2,0,.1,0,.2,0,.3.1,0,0,.2,0,.2.1,0,0,.2,0,.2.1,0,0,.1,0,.2.1,0,0,0,0,0,0,0,0,0,0,0,0,0,0,0,0,0,0,0,0,.2,0,.2.1,0,0,0,0,0,0h0s0,0,0,0h0s0,0,0,0c.3.2.7.4,1.1.7,0,0,0,0,0,0,0,0,0,0,0,0,0,0,0,0,0,0,.1.1.3.2.4.3,0,0,0,0,0,0,0,0,.2.1.2.2,0,0,0,0,0,0,0,0,0,0,0,0,0,0,0,0,0,0,0,0,0,0,0,0h0c.1.1.2.2.3.3,0,0,0,0,0,0,0,0,0,0,0,0s0,0,0,0c0,0,.1.1.2.2,0,0,0,0,0,0h0s0,0,0,0c0,0,0,0,0,0,0,0,0,0,0,0,.7.7,1.3,1.6,1.8,2.7,0,0,0,0,0,0,0,0,0,0,0,0,.1.3.3.6.4.9,0,0,0,0,0,0Z"/>
        <path class="st7" d="M23,12.6l-6,.3-12.3.5c.6-2.3,1.9-5,4.1-6.4,1.5-1,3.2-1.3,4.9-1.2,1.5,0,3,.5,4.2,1.1.4.2,3.9,1.9,5.2,5.7,0,0,0,0,0,0Z"/>
        <path class="st4" d="M21.9,21.2c-.2.4-.4.8-.6,1.2,0,0,0,0,0,0l-5.2-.5-9.3-.9-5.7-.6c.6-.5,1.3-.9,1.7-1.8.4-1,.3-1.8.3-2.3,0-.4,0-.9,0-1.3,0-.4.1-.9.3-1.4,0,0,0,0,0,0l11.4-.5,4.9-.2h2.8c.1.3.3.7.3,1.1.5,2.3,0,4.8-1,7.1Z"/>
        <path class="st8" d="M21.2,21c-.2.4-.4.8-.6,1.1,0,0,0,0,0,0l-4.9-.5-8.8-.9-5.4-.5c.6-.4,1.2-.8,1.6-1.7.4-.9.3-1.7.3-2.2,0-.4,0-.8,0-1.3,0-.4.1-.9.2-1.3,0,0,0,0,0,0l10.9-.5,4.7-.2h2.6c.1.3.2.7.3,1.1.4,2.2,0,4.6-1,6.8Z"/>
        <path class="st2" d="M22.2,22.4c-1.4,2.6-3.6,4.8-6.2,6.1-.6.3-1.2.6-1.8.8-5.6,2-12.4.5-13.9-2.8-.5-1.2-.7-3.5.4-5.1.3-.4.7-.7,1.1-1h0l5.6.5,14.8,1.5Z"/>
        <path class="st6" d="M21.6,22.6c-1.4,2.4-3.4,4.5-5.8,5.8-.6.3-1.1.5-1.7.7-5.3,1.8-11.7.5-13.1-2.6-.5-1.1-.7-3.4.4-4.8.3-.4.7-.7,1-.9h0l5.3.5,14,1.4Z"/>
        <path class="st15" d="M21.9,21.2c-.2.4-.4.8-.6,1.2l-19.4-1.9,20.1.7Z"/>
        <path class="st15" d="M22.9,14l-18.7-.5,18.4-.8c.1.4.3.8.3,1.2Z"/>
        <path class="st16" d="M14.2,29.3c-5.6,2-12.4.5-13.9-2.8-.5-1.2-.7-3.5.4-5.1.3-.4.7-.7,1.1-1h0l5.6.5-.4.4S.1,29.2,14.2,29.3Z"/>
        <path class="st16" d="M21.9,21.2c-.2.4-.4.8-.6,1.2,0,0,0,0,0,0l-5.2-.5-9.3-.9c.2,0,.4,0,.6,0,12.3,1,12.6-5.9,12.4-8.1h2.8c.1.3.3.7.3,1.1.5,2.3,0,4.8-1,7.1Z"/>
        <path class="st16" d="M23.5,12.7h-.9s-.6,0-.6,0h-2.1c0,0-2.6.2-2.6.2h0c0,0,.1-.1.2-.2.6-.8.9-1.6,1-2.3,0-.3,0-.5,0-.8h0c0-.6-.4-1.2-.7-1.6,0,0-.1-.1-.2-.2,0,0-.2-.2-.2-.3s-.2-.2-.3-.2c0,0,0,0,0,0,0,0,0,0,0,0,0,0-.1-.1-.2-.2-.2-.2-.4-.3-.6-.4-.2-.1-.4-.3-.7-.4h0c-.2-.1-.4-.2-.5-.3,0,0-.1,0-.2-.1-.2,0-.3-.1-.5-.2-.2,0-.4-.1-.5-.2.1,0,.2,0,.4,0,0,0,.2,0,.3,0,0,0,.1,0,.2,0,0,0,0,0,.1,0,0,0,.1,0,.2,0,0,0,0,0,0,0,.1,0,.2,0,.3,0,0,0,.1,0,.2,0,0,0,0,0,0,0,0,0,0,0,0,0,0,0,0,0,0,0,0,0,.1,0,.2,0,0,0,.2,0,.2,0,0,0,0,0,.1,0,0,0,.1,0,.2,0,.1,0,.2,0,.3.1,0,0,0,0,0,0,0,0,0,0,0,0h0s0,0,0,0c.1,0,.2,0,.3.1,0,0,.1,0,.2,0,0,0,.2,0,.2,0,.1,0,.2,0,.3.1,0,0,.2,0,.2.1,0,0,.2,0,.2.1,0,0,.1,0,.2.1,0,0,0,0,0,0,0,0,0,0,0,0,0,0,0,0,0,0,0,0,.2,0,.2.1,0,0,0,0,0,0h0s0,0,0,0h0s0,0,0,0c.3.2.7.4,1.1.7,0,0,0,0,0,0,0,0,0,0,0,0,0,0,0,0,0,0,.1.1.3.2.4.3,0,0,0,0,0,0,0,0,.2.1.2.2,0,0,0,0,0,0,0,0,0,0,0,0,0,0,0,0,0,0,0,0,0,0,0,0h0c.1.1.2.2.3.3,0,0,0,0,0,0,0,0,0,0,0,0s0,0,0,0c0,0,.1.1.2.2,0,0,0,0,0,0h0s0,0,0,0c0,0,0,0,0,0,0,0,0,0,0,0,.7.7,1.3,1.6,1.8,2.7,0,0,0,0,0,0,0,0,0,0,0,0,.1.3.3.6.4.9,0,0,0,0,0,0Z"/>
        <g>
          <path class="st3" d="M25.4,11.4h0s0,0,0,0c0,0,0,0,0,0,0,0,0,0,0,0,0,0,0,0,0,0,0,0,0,0-.1,0,0,0,0,0,0,0,0,0,0,0,0,0,0,0-.1,0-.2,0,0,0,0,0,0,0,0,0,0,0,0,0,0,0,0,0,0,0,0,0,0,0,0,0,0,0,0,0,0,0,0,0,0,0,0,0,0,0,0,0,0,0,0,0,0,0,0,0,0,0,0,0,0,0,0,0,0,0-.1,0,0,0,0,0,0,0,0,0,0,0-.1,0,0,0,0,0-.1,0,0,0,0,0,0,0,0,0,0,0,0,0h0s0,0,0,0c0,0,0,0,0,0,0,0,0,0,0,0,0,0,0,0,0,0,0,0,0,0-.1,0,0,0-.1,0-.2,0,0,0,0,0,0,0h0s0,0-.1,0h0s0,0,0,0,0,0,0,0c0,0,0,0,0,0,0,0,0,0,0,0,0,0,0,0,0,0h0s0,0,0,0c0,0,0,0,0,0,0,0,0,0,0,0,0,0,0,0,0,0s0,0,0,0c0,0,0,0,0,0,0,0,0,0,0,0,0,0,0,0,0,0,0,0,0,0,0,0,0,0,0,0,0,0,0,0,0,0,0,0,0,0,0,0,0,0,0,0,0,0,0,0h0s0,0-.1,0c0,0,0,0,0,0-.1,0-.3,0-.4,0,0,0,0,0,0,0,0,0,0,0,0,0s0,0,0,0c0,0,0,0,0,0,0,0,0,0,0,0-.1,0-.2,0-.3,0,0,0,0,0,0,0,0,0,0,0,0,0,0,0-.1,0-.2,0,0,0,0,0,0,0s0,0,0,0c0,0,0,0,0,0,0,0,0,0,0,0,0,0,0,0,0,0,0,0,0,0,0,0,0,0,0,0,0,0,0,0,0,0,0,0,0,0-.1,0-.2,0,0,0,0,0,0,0,0,0,0,0,0,0,0,0,0,0,0,0,0,0,0,0-.1,0,0,0,0,0-.1,0,0,0-.1,0-.2,0-.2-.1-.4-.2-.6-.3,0,0,0,0-.1,0,0,0,0,0,0,0,0,0,0,0,0,0,0,0,0,0,0,0-.1,0-.2-.2-.4-.3,0,0,0,0,0,0,0,0,0,0,0,0-.1-.1-.3-.2-.4-.4,0,0,0,0,0,0,0,0,0,0,0,0,0,0,0,0,0,0,0,0,0,0,0-.1,0,0,0,0,0,0,0,0,0,0,0,0,0,0,0,0,0,0,0,0,0,0,0,0,0,0,0,0,0,0,0,0,0,0,0,0,0,0,0,0,0,0,0,0,0,0-.1-.1,0,0,0-.1-.1-.2,0,0,0,0,0,0-.1-.2-.3-.4-.4-.6,0,0,0,0,0,0h0s0,0,0,0c0,0,0,0,0,0,0,0,0,0,0,0,0,0,0,0,0,0,0,0,0,0,0-.1,0,0,0,0,0-.1,0,0,0,0,0-.1,0,0,0,0,0,0,0,0,0,0,0,0h0s0,0,0,0c0,0,0,0,0-.1,0-.1,0-.2-.1-.3,0-.2,0-.3-.1-.5,0,0,0,0,0,0,0,0,0-.2,0-.2,0,0,0,0,0,0,0,0,0,0,0-.1h0s0,0,0,0c0,0,0,0,0,0,0,0,0,0,0,0,0,0,0,0,0,0,0,0,0,0,0,0,0,0,0,0,0,0,0,0,0,0,0-.1,0,0,0-.1,0-.2,0,0,0-.1,0-.2,0,0,0-.2,0-.2,0,0,0,0,0,0,0,0,0,0,0,0h0s0,0,0-.1h0s0,0,0,0c0,0,0,0,0,0,0,0,0,0,0,0,0,0,0,0,0,0h0c0,0,0-.1,0-.1,0,0,0,0,0,0,0,0,0,0,0,0,0,0,0,0,0,0h0s0,0,0,0c0,0,0,0,0,0,0,0,0,0,0,0h0s0,0,0,0c0,0,0,0,0,0,0,0,0,0,0,0,0,0,0,0,0,0h0s0,0,0,0c0,0,0,0,0,0,0,0,0,0,0,0,0,0,0,0,0,0,0,0,0,0,0,0,0,0,0,0,0,0h0s0,0,0-.1c0,0,0,0,0,0,0,0,0,0,0,0h0s0,0,0,0c0,0,0,0,0,0,0,0,0,0,0,0,0,0,0,0,0,0,0,0,0,0,0,0,0,0,0,0,0-.1h0s0,0,0,0h0s0,0,0,0c.1,0,.2,0,.3-.1.3,0,.6-.1.8-.2.6,0,1.2,0,1.7,0,0,0,.1,0,.2,0,0,0,0,0,0,0,0,0,0,0,.1,0,.5,0,.9.2,1.4.4,0,0,.2,0,.3.1.1,0,.3.1.4.2.4.2.9.5,1.3.9,1.9,1.7,2.6,4.2,2.1,6.5Z"/>
          <path class="st16" d="M25.4,11.4s0,0,0,0c0,0,0,0,0,0,0,0,0,0,0,0,0,0,0,0,0,0,0,0,0,0-.1,0,0,0,0,0,0,0,0,0,0,0,0,0,0,0-.1,0-.2,0,0,0,0,0,0,0,0,0,0,0,0,0,0,0,0,0,0,0,0,0,0,0,0,0,0,0,0,0,0,0,0,0,0,0,0,0,0,0,0,0,0,0,0,0,0,0,0,0,0,0,0,0,0,0,0,0,0,0-.1,0,0,0,0,0,0,0,0,0,0,0-.1,0,0,0,0,0-.1,0,0,0,0,0,0,0,0,0,0,0,0,0h0s0,0,0,0c0,0,0,0,0,0,0,0,0,0,0,0,0,0,0,0,0,0,0,0,0,0-.1,0,0,0-.1,0-.2,0,0,0,0,0,0,0h0s0,0-.1,0h0s0,0,0,0,0,0,0,0c0,0,0,0,0,0,0,0,0,0,0,0,0,0,0,0,0,0h0s0,0,0,0c0,0,0,0,0,0,0,0,0,0,0,0,0,0,0,0,0,0s0,0,0,0c0,0,0,0,0,0,0,0,0,0,0,0,0,0,0,0,0,0,0,0,0,0,0,0,0,0,0,0,0,0,0,0,0,0,0,0,0,0,0,0,0,0,0,0,0,0,0,0h0s0,0-.1,0c0,0,0,0,0,0-.1,0-.3,0-.4,0,0,0,0,0,0,0,0,0,0,0,0,0s0,0,0,0c0,0,0,0,0,0,0,0,0,0,0,0-.1,0-.2,0-.3,0,0,0,0,0,0,0,0,0,0,0,0,0,0,0-.1,0-.2,0,0,0,0,0,0,0s0,0,0,0c0,0,0,0,0,0,0,0,0,0,0,0,0,0,0,0,0,0,0,0,0,0,0,0,0,0,0,0,0,0,0,0,0,0,0,0,0,0-.1,0-.2,0,0,0,0,0,0,0,0,0,0,0,0,0,0,0,0,0,0,0,0,0,0,0-.1,0,0,0,0,0-.1,0,0,0-.1,0-.2,0-.2-.1-.4-.2-.6-.3,0,0,0,0-.1,0,0,0,0,0,0,0,0,0,0,0,0,0,0,0,0,0,0,0-.1,0-.2-.2-.4-.3,0,0,0,0,0,0,0,0,0,0,0,0-.1-.1-.3-.2-.4-.4,0,0,0,0,0,0,0,0,0,0,0,0,0,0,0,0,0,0,0,0,0,0,0-.1,0,0,0,0,0,0,0,0,0,0,0,0,0,0,0,0,0,0,0,0,0,0,0,0,0,0,0,0,0,0,0,0,0,0,0,0,0,0,0,0,0,0,0,0,0,0-.1-.1,0,0,0-.1-.1-.2,0,0,0,0,0,0-.1-.2-.3-.4-.4-.6,0,0,0,0,0,0h0s0,0,0,0c0,0,0,0,0,0,0,0,0,0,0,0,0,0,0,0,0,0,0,0,0,0,0-.1,0,0,0,0,0-.1,0,0,0,0,0-.1,0,0,0,0,0,0,0,0,0,0,0,0h0s0,0,0,0c0,0,0,0,0-.1,0-.1,0-.2-.1-.3,0-.2,0-.3-.1-.5,0,0,0,0,0,0,0,0,0-.2,0-.2,0,0,0,0,0,0,0,0,0,0,0-.1h0s0,0,0,0c0,0,0,0,0,0,0,0,0,0,0,0,0,0,0,0,0,0,0,0,0,0,0,0,0,0,0,0,0,0,0,0,0,0,0-.1,0,0,0-.1,0-.2,0,0,0-.1,0-.2,0,0,0-.2,0-.2,0,0,0,0,0,0,0,0,0,0,0,0h0s0,0,0-.1h0s0,0,0,0c0,0,0,0,0,0,0,0,0,0,0,0,0,0,0,0,0,0h0c0,0,0-.1,0-.1,0,0,0,0,0,0,0,0,0,0,0,0,0,0,0,0,0,0h0s0,0,0,0c0,0,0,0,0,0,0,0,0,0,0,0h0s0,0,0,0c0,0,0,0,0,0,0,0,0,0,0,0,0,0,0,0,0,0h0s0,0,0,0c0,0,0,0,0,0,0,0,0,0,0,0,0,0,0,0,0,0,0,0,0,0,0,0,0,0,0,0,0,0h0s0,0,0-.1c0,0,0,0,0,0,0,0,0,0,0,0h0s0,0,0,0c0,0,0,0,0,0,0,0,0,0,0,0,0,0,0,0,0,0,0,0,0,0,0,0,0,0,0,0,0-.1h0s0,0,0,0h0s0,0,0,0c.1,0,.2,0,.3-.1.3,0,.6-.1.8-.2.6,0,1.2,0,1.7,0,0,0,.1,0,.2,0,0,0,0,0,0,0,0,0,0,0,.1,0,0,0,0,0,0,0,.2,0,.3.2.4.3.7.5,1.3,1,1.8,1.4.2.2.4.4.6.6,1.9,2.2,2.4,4.3,2.6,5.2,0,.2,0,.4,0,.4h0s0,0,0,0h0s0,0,0,0c0,0,0,0,0,0h0s0,0,0,0h0Z"/>
          <path class="st16" d="M21.3,3.8s0,0-.1,0t0,0c-.2,0-.5,0-.8,0-.4,0-.8,0-1.2,0-.2,0-.4,0-.6,0-.2,0-.5,0-.7.1-.2,0-.3,0-.4.1h0s0,0,0,0h0s0,0,0,0c0,0,0,0,0,0h0s0,0,0,0c0,0-.1,0-.2,0h0s0,0,0,0c0,0,0,0-.1,0,0,0,0,0-.1,0,0,0,0,0,0,0,0,0-.1,0-.2.2,0,0,0,0,0,0t0,0s0,0,0,0c0,0,0,0-.1.1h0s0,0,0,0c0,0,0,0,0,0,0,0,0,0,0,0,0,0,0,0,0,0,0,0,0,0,0,0h0s0,0,0,0c0,0,0,0,0,0,0,0,0,0,0,0,0,0,0,0,0,0,0,0,0,0,0,0,0,0,0,0,0,0h0s0,0,0-.1c0,0,0,0,0,0,0,0,0,0,0,0h0s0,0,0,0c0,0,0,0,0,0,0,0,0,0,0,0,0,0,0,0,0,0,0,0,0,0,0,0,0,0,0,0,0-.1h0s0,0,0,0h0s0,0,0,0c.1,0,.2,0,.3-.1.3,0,.6-.1.8-.2.6,0,1.2,0,1.7,0,0,0,.1,0,.2,0,0,0,0,0,0,0,0,0,0,0,.1,0,.5,0,.9.2,1.4.4Z"/>
          <path class="st16" d="M23.5,12.7h-.9s-.6,0-.6,0h0s0,0,0,0,0,0,0,0c0,0,0,0-.1,0-.2,0-.3,0-.4-.1,0,0,0,0,0,0,0,0,0,0,0,0-.1,0-.2,0-.3-.1,0,0,0,0-.1,0,0,0-.1,0-.2-.1,0,0-.1,0-.2,0,0,0,0,0,0,0,0,0-.2-.1-.3-.2,0,0,0,0,0,0,0,0,0,0,0,0,0,0-.1,0-.2-.1,0,0,0,0-.1,0,0,0-.1,0-.2-.1-.2-.1-.4-.3-.6-.5,0,0-.1-.1-.2-.2-.1-.1-.3-.3-.4-.4,0,0,0,0,0,0,0,0,0,0,0,0-.1-.1-.2-.3-.3-.4,0,0,0-.1-.1-.2,0,0,0,0,0-.1,0,0,0,0,0,0,0,0,0,0,0,0,0,0,0,0,0,0,0,0,0,0,0-.1,0,0,0,0,0-.1,0,0,0-.1,0-.2,0,0,0-.1-.1-.2t0,0c0-.1-.1-.3-.2-.4,0-.1-.1-.3-.2-.4t0,0s0,0,0-.1c0,0,0,0,0,0,0-.1,0-.2,0-.3,0-.1,0-.2,0-.3,0,0,0,0,0,0,0-.3-.1-.6-.1-.9,0,0,0-.1,0-.2,0,0,0,0,0,0h0s0,0,0,0c.1,0,.2,0,.3.1,0,0,.1,0,.2,0,0,0,.2,0,.2,0,.1,0,.2,0,.3.1,0,0,.2,0,.2.1,0,0,.2,0,.2.1,0,0,.1,0,.2.1,0,0,0,0,0,0,0,0,0,0,0,0,0,0,0,0,0,0,0,0,.2,0,.2.1,0,0,0,0,0,0h0s0,0,0,0h0s0,0,0,0c.3.2.7.4,1.1.7,0,0,0,0,0,0,0,0,0,0,0,0,0,0,0,0,0,0,.1.1.3.2.4.3,0,0,0,0,0,0,0,0,.2.1.2.2,0,0,0,0,0,0,0,0,0,0,0,0,0,0,0,0,0,0,0,0,0,0,0,0h0c.1.1.2.2.3.3,0,0,0,0,0,0,0,0,0,0,0,0s0,0,0,0c0,0,.1.1.2.2,0,0,0,0,0,0h0s0,0,0,0c0,0,0,0,0,0,0,0,0,0,0,0,.7.7,1.3,1.6,1.8,2.7,0,0,0,0,0,0,0,0,0,0,0,0,.1.3.3.6.4.9,0,0,0,0,0,0Z"/>
          <path class="st1" d="M25.4,11.4s0,0-.1,0c0,0,0,0,0,0,0,0-.1,0-.2,0,0,0,0,0,0,0,0,0-.2,0-.2,0,0,0,0,0,0,0,0,0,0,0,0,0,0,0,0,0-.1,0,0,0,0,0,0,0,0,0-.1,0-.2,0,0,0,0,0,0,0,0,0,0,0-.1,0,0,0,0,0-.1,0,0,0,0,0,0,0,0,0,0,0,0,0h0c0,0-.1,0-.2,0,0,0,0,0,0,0,0,0-.2,0-.3,0,0,0,0,0,0,0h0s0,0-.1,0h0s0,0,0,0,0,0,0,0c0,0,0,0,0,0,0,0,0,0,0,0h0s0,0,0,0c0,0,0,0,0,0,0,0,0,0,0,0,0,0,0,0,0,0s0,0,0,0c0,0,0,0,0,0,0,0,0,0,0,0,0,0,0,0,0,0,0,0,0,0,0,0,0,0,0,0,0,0,0,0,0,0,0,0,0,0,0,0,0,0,0,0,0,0,0,0,0,0,0,0-.1,0-.2,0-.3,0-.5,0,0,0,0,0,0,0,0,0,0,0,0,0,0,0,0,0,0,0,0,0,0,0-.1,0,0,0,0,0,0,0,0,0,0,0-.1,0,0,0,0,0-.1,0,0,0-.1,0-.2,0,0,0,0,0,0,0,0,0,0,0-.1,0,0,0,0,0,0,0,0,0,0,0,0,0,0,0,0,0,0,0,0,0,0,0,0,0,0,0,0,0-.1,0,0,0,0,0,0,0,0,0,0,0,0,0,0,0,0,0,0,0,0,0-.1,0-.2,0,0,0,0,0-.1,0,0,0-.1,0-.2,0-.2-.1-.4-.2-.6-.3,0,0,0,0-.1,0,0,0,0,0,0,0,0,0,0,0,0,0-.1-.1-.3-.2-.4-.3,0,0,0,0,0,0-.1-.1-.3-.2-.4-.4,0,0,0,0,0,0s0,0,0,0c0,0,0,0,0-.1,0,0,0,0,0,0,0,0,0,0,0,0,0,0,0,0,0,0,0,0,0,0,0,0,0,0,0,0,0,0,0,0,0,0-.1-.1,0,0,0-.1-.1-.2,0,0,0,0,0,0-.1-.2-.3-.4-.4-.6,0,0,0,0,0,0h0s0,0,0,0c0,0,0,0,0,0,0,0,0,0,0,0,0,0,0-.2-.1-.3,0,0,0-.2-.1-.3,0,0,0,0,0,0,0,0,0,0,0-.1,0-.1,0-.2-.1-.3,0-.2,0-.3-.1-.5,0,0,0,0,0,0,0,0,0-.2,0-.2,0,0,0,0,0,0,0,0,0,0,0-.1h0s0,0,0,0c0,0,0,0,0,0,0,0,0,0,0,0,0,0,0,0,0,0,0,0,0,0,0,0,0,0,0,0,0-.1,0,0,0-.1,0-.2,0,0,0-.1,0-.2,0,0,0-.2,0-.2,0,0,0,0,0,0,0,0,0,0,0-.1h0c0,0,0,0,0,0,0,0,0,0,0,0,0,0,0,0,0,0h0c0,0,0-.1,0-.1,0,0,0,0,0,0,0,0,0,0,0,0,0,0,0,0,0,0h0s0,0,0,0c0,0,0,0,0,0,0,0,0,0,0,0,0,0,0,0,0,0h0s0,0,0,0c0,0,0,0,0,0,0,0,0,0,0,0,0,0,0,0,0,0h0s0,0,0,0c0,0,0,0,0,0,0,0,0,0,0,0,0,0,0,0,0,0,0,0,0,0,0,0,0,0,0,0,0,0h0s0,0,0-.1c0,0,0,0,0,0,0,0,0,0,0,0h0s0,0,0,0c0,0,0,0,0,0,0,0,0,0,0,0,0,0,0,0,0,0h0s0,0,0,0c0,0,0,0,0,0,0,0,0,0,0-.1h0s0,0,0,0c0,0,0,0,0,0h0s0,0,0,0c0,0,0,0,0,0t0,0s0,0,0,0c0,0,0,0,0,0,0,0,0,0,0,0t0,0s0,0,0,0c0,0,0,0,0,0,0,0,0,0,0,0,0,0,.2,0,.2,0,0,0,0,0,0,0,0,0,0,0,0,0,0,0,0,0,0,0h0s0,0,0,0c0,0,0,0,0,0,0,0,0,0,0,0h0s0,0,0,0c0,0,0,0,0,0,0,0,0,0,0,0h0s0,0,0,0c0,0,0,0,0,0,0,0,0,0,0,0,0,0,0,0,0,0,0,0,0,0,0,0,0,0,.1,0,.1,0,0,0,.1,0,.2,0,0,0,0,0,0,0,0,0,0,0,0,0h0s0,0,0,0c0,0,0,0,0,0h0s0,0,0,0c0,0,0,0,0,0,0,0,0,0,0,0,0,0,.1,0,.2,0h0s0,0,0,0c0,0,0,0,.1,0,0,0,0,0,0,0,0,0,.1,0,.2,0,0,0,0,0,0,0,0,0,0,0,0,0,.1,0,.2.1.3.2,0,0,0,0,0,0,0,0,.2.1.3.2.2.1.4.2.6.4,0,0,0,0,0,0,0,0,.1,0,.2.1.2.1.3.2.5.3.1,0,.2.1.3.2,0,0,0,0,0,0,0,0,0,0,0,0,0,0,0,0,0,0,0,0,0,0,0,0t0,0h0s0,0,0,0c0,0,0,0,0,0,0,0,0,0,.1,0,0,0,0,0,0,0,0,0,.1,0,.2.1,0,0,0,0,0,0,0,0,0,0,0,0,0,0,0,0,0,0,0,0,0,0,0,0,0,0,.1.1.2.2,0,0,.1.1.2.2,0,0,0,0,0,0h0s0,0,.1.1c0,0,0,0,0,0,0,0,0,0,0,0,0,0,0,0,0,0t0,0s0,0,.1.1,0,0,0,0c0,0,0,0,0,0s0,0,0,0c0,0,0,0,.1.1,0,0,0,0,0,0h0s0,0,0,0,0,0,0,0c0,0,0,0,0,0,0,0,0,0,.1.1,0,0,.1.1.1.2,0,0,0,0,0,0,0,0,0,0,0,0,0,0,0,0,0,0,0,.1.2.2.2.3,0,0,.1.2.2.2,0,0,0,0,0,0,0,0,0,0,0,0,0,0,0,0,0,0,0,0,0,0,0,0,0,0,0,0,0,0,0,0,0,0,0,0,0,0,0,0,0,0,0,0,0,0,0,0,0,0,0,0,0,0,0,0,0,0,0,.1h0s0,0,0,0h0s0,0,0,0c0,0,0,0,0,0,0,0,0,0,0,0h0s0,0,0,0c0,0,0,.1.1.2,0,0,.1.2.1.2,0,0,0,0,0,0,0,0,0,0,0,0,0,0,0,0,0,0,0,0,0,0,0,0,0,0,0,0,0,0,0,0,0,0,0,.1,0,0,0,0,0,0,0,0,0,0,0,0,0,0,0,0,0,0,0,0,0,.1,0,.2,0,0,0,0,0,0,0,0,0,.1,0,.2,0,0,0,0,0,0,0,0,0,.1.1.2,0,0,0,.1,0,.2,0,0,0,.2,0,.2h0s0,0,0,0c0,0,0,0,0,0,0,0,0,0,0,0h0s0,0,0,0c0,0,0,0,0,0,0,0,0,0,0,0,0,0,0,0,0,0h0s0,0,0,0h0s0,0,0,0h0s0,0,0,0h0Z"/>
          <path class="st17" d="M25.4,11.4s0,0,0,0t0,0s0,0,0-.2c-.2-.3-.8-1.2-1.6-2.1-.2-.2-.4-.4-.6-.6-.3-.3-.5-.5-.9-.8-.9-.7-1.9-1.4-3.1-1.9-.5-.2-1.1-.4-1.7-.6h0c0,0-.2,0-.2,0,0,0-.1,0-.2,0,0,0,0,0,0,0h0c0,0-.1,0-.2,0,0,0-.2,0-.2,0,0,0,0,0-.1,0,0,0,0,0,0,0,0,0,0,0,0-.1h0c0,0,0,0,0,0,0,0,0,0,0,0,0,0,0,0,0,0h0c0,0,0-.1,0-.1,0,0,0,0,0,0,0,0,0,0,0,0,0,0,0,0,0,0h0s0,0,0,0c0,0,0,0,0,0,0,0,0,0,0,0h0s0,0,0,0c0,0,0,0,0,0,0,0,0,0,0,0,0,0,0,0,0,0,0,0,0,0,0,0h0s0,0,0,0c0,0,0,0,0,0,0,0,0,0,0,0,0,0,0,0,0,0,0,0,0,0,0,0,0,0,0,0,0,0h0s0,0,0-.1c0,0,0,0,0,0,0,0,0,0,0,0h0s0,0,0,0c0,0,0,0,0,0,0,0,0,0,0,0,0,0,0,0,0,0,0,0,0,0,0,0h0s0,0,0,0c0,0,0,0,0,0,0,0,0,0,0-.1h0s0,0,0,0c0,0,0,0,0,0h0s0,0,0,0c0,0,0,0,0,0,0,0,0,0,0,0,0,0,0,0,0,0h0s0,0,0,0c0,0,0,0,0,0,0,0,0,0,0,0,0,0,.2,0,.2,0,0,0,0,0,0,0,0,0,0,0,0,0,0,0,0,0,0,0,0,0,0,0,0,0,0,0,0,0,0,0,0,0,0,0,0,0,0,0,0,0,0,0,0,0,0,0,0,0h0s0,0,0,0c0,0,0,0,0,0,0,0,0,0,0,0,0,0,0,0,0,0,0,0,0,0,0,0,0,0,.1,0,.1,0,0,0,.1,0,.2,0,0,0,0,0,0,0,0,0,0,0,0,0h0s0,0,0,0c0,0,0,0,0,0h0s0,0,0,0t0,0s0,0,0,0c0,0,0,0,0,0,0,0,.1,0,.2,0h0s0,0,0,0c0,0,0,0,.1,0,0,0,0,0,0,0,0,0,.1,0,.2,0,0,0,0,0,0,0,0,0,0,0,0,0,.1,0,.2.1.3.2,0,0,0,0,0,0,0,0,.2.1.3.2.2.1.4.2.6.4,0,0,0,0,0,0,0,0,.1,0,.2.1.2.1.3.2.5.3.1,0,.2.1.3.2,0,0,0,0,0,0,0,0,0,0,0,0,0,0,0,0,0,0,0,0,0,0,0,0,0,0,0,0,0,0,0,0,0,0,0,0,0,0,0,0,.1,0,0,0,0,0,0,0,0,0,.1,0,.2.1,0,0,0,0,0,0,0,0,0,0,0,0,0,0,0,0,0,0,0,0,0,0,0,0,0,0,.1.1.2.2,0,0,.1.1.2.2,0,0,0,0,0,0h0s0,0,.1.1c0,0,0,0,0,0,0,0,0,0,0,0t0,0s0,0,.1.1,0,0,0,0c0,0,0,0,0,0s0,0,0,0c0,0,0,0,.1.1,0,0,0,0,0,0h0s0,0,0,0,0,0,0,0c0,0,0,0,0,0,0,0,0,0,.1.1,0,0,.1.1.1.2,0,0,0,0,0,0,0,0,0,0,0,0,0,0,0,0,0,0,0,.1.2.2.2.3,0,0,.1.2.2.2,0,0,0,0,0,0,0,0,0,0,0,0,0,0,0,0,0,0,0,0,0,0,0,0,0,0,0,0,0,0,0,0,0,0,0,0,0,0,0,0,0,0,0,0,0,0,0,0,0,0,0,0,0,0s0,0,0,0c0,0,0,0,0,.1,0,0,0,0,0,0h0s0,0,0,0c0,0,0,0,0,0h0s0,0,0,0c0,0,0,.1.1.2,0,0,.1.2.1.2,0,0,0,0,0,0,0,0,0,0,0,0,0,0,0,0,0,0,0,0,0,0,0,0,0,0,0,0,0,0,0,0,0,0,0,.1,0,0,0,0,0,0,0,0,0,0,0,0,0,0,0,.1,0,.2,0,0,0,0,0,0,0,0,0,.1,0,.2,0,0,0,0,0,0,0,0,0,.1.1.2,0,0,0,.1,0,.2,0,0,0,.2,0,.2h0s0,0,0,0c0,0,0,0,0,0,0,0,0,0,0,0h0s0,0,0,0c0,0,0,0,0,0,0,0,0,0,0,0,0,0,0,0,0,0h0s0,0,0,0c0,0,0,0,0,0Z"/>
          <path class="st14" d="M25.4,11.4s0,0,0,0t0,0s0,0,0-.2c-.5-1-3-5.3-7.4-6.6-.3,0-.6-.1-.9-.2,0,0-.2,0-.3,0h0s0,0,0,0c0,0-.1,0-.2,0,0,0,0,0,0,0,0,0,0,0,0,0,0,0,0,0,0,0,0,0,0,0,0,0,0,0,0,0,0-.1,0,0,0,0,0,0,0,0,0,0,0,0,0,0,0,0,0,0,0,0,0,0,0,0,0,0,0,0,0-.1,0,0,0,0,0,0,0,0,0,0,0,0h0s0,0,0,0c0,0,0,0,0,0,0,0,0,0,0-.1h0s0,0,0,0c0,0,0,0,0,0,0,0,0,0,0,0,0,0,0,0,0,0,0,0,0,0,0,0,0,0,0,0,0,0t0,0s0,0,0,0c0,0,0,0,0,0,0,0,.2,0,.2,0,0,0,0,0,0,0,0,0,0,0,0,0,0,0,0,0,0,0,0,0,0,0,0,0,0,0,0,0,0,0,0,0,0,0,0,0,0,0,0,0,0,0,0,0,0,0,0,0,0,0,0,0,0,0h0s0,0,0,0c0,0,0,0,0,0,0,0,0,0,0,0,0,0,0,0,0,0,0,0,.1,0,.1,0,0,0,.1,0,.2,0,0,0,0,0,0,0,0,0,0,0,0,0,0,0,0,0,0,0,0,0,0,0,0,0h0s0,0,0,0c0,0,0,0,0,0,0,0,.1,0,.2,0,0,0,0,0,0,0,0,0,0,0,.1,0,0,0,0,0,0,0,0,0,.1,0,.2,0,0,0,0,0,0,0,.1,0,.2.1.4.2,0,0,0,0,0,0,0,0,.2.1.3.2.2.1.4.2.6.4,0,0,.2,0,.2.1.2.1.3.2.5.3.1,0,.2.1.3.2,0,0,0,0,0,0,0,0,0,0,0,0,0,0,0,0,0,0,0,0,0,0,0,0,0,0,0,0,0,0,0,0,0,0,0,0,0,0,0,0,.1,0,0,0,.2.2.3.2,0,0,0,0,0,0,.1.1.2.2.3.3,0,0,.1.1.2.2h0c0,0,0,0,.1.1,0,0,0,0,0,0h0c0,0,0,.1.1.2s0,0,0,0c0,0,0,0,0,0,0,0,0,0,.1.1,0,0,0,0,0,.1,0,0,0,0,0,0,0,0,0,0,.1.1,0,0,.1.1.1.2,0,0,0,0,.1.1,0,0,0,0,0,0,0,.1.2.2.2.3,0,0,.1.2.2.2,0,0,0,0,0,0,0,0,0,0,0,0,0,0,.1.1.2.2,0,0,0,0,0,0,0,0,0,0,0,0,0,0,0,0,0,.1h0s0,0,0,0c0,0,0,0,0,0,0,0,0,0,0,0,0,0,0,.1.1.2,0,0,.1.2.1.2,0,0,0,0,0,0,0,0,0,0,0,0,0,0,0,0,0,.1,0,0,0,.1.1.2,0,0,0,0,0,0,0,0,0,0,0,0,0,0,0,.1,0,.2,0,0,0,0,0,0,0,0,0,.1,0,.2,0,0,0,0,0,0,0,0,0,.1.1.2,0,0,0,.1,0,.2,0,0,0,.2,0,.2h0s0,0,0,0c0,0,0,0,0,0,0,0,0,0,0,0,0,0,0,0,0,0,0,0,0,0,0,0,0,0,0,0,0,0,0,0,0,0,0,0,0,0,0,0,0,0,0,0,0,0,0,0Z"/>
          <path class="st18" d="M25.4,11.4h0s0,0-.1-.1c0,0,0,0,0,0-.4-.5-2.1-2.1-4.4-2.9,0,0,0,0,0,0,0,0,0,0,0,0,0,0,0,0-.1,0,0,0,0,0,0,0-.1,0-.3,0-.4-.1,0,0,0,0,0,0-.1,0-.2,0-.3,0,0,0,0,0,0,0h0s0,0,0,0c0,0-.1,0-.2,0-.7-.1-1.5-.1-2.2,0,0,0,0,0-.1,0,0,0,0,0-.1,0,0,0,0,0-.1,0h0s0,0,0,0c0,0,0,0,0,0,0,0,0,0,0,0,0,0,0,0,0,0,0,0,0,0,0,0,0-.1-.1-.2-.2-.4,0,0,0-.1,0-.2,0,0,0,0,0,0,0,0,0,0,0-.1,0-.1,0-.2-.1-.3,0-.2,0-.3-.1-.5,0,0,0,0,0,0,0,0,0-.2,0-.2,0,0,0-.1,0-.2,0,0,0,0,0,0,0,0,0,0,0,0,0,0,0,0,0,0,0,0,0,0,0-.1,0,0,0,0,0-.1,0-.2,0-.3,0-.5h0c0-.2,0-.2,0-.2h0c0,0,0,0,0,0,0,0,0,0,0,0,0,0,0,0,0,0,0,0,0,0,0,0,0,0,0,0,0,0h0s0,0,0-.1c0,0,0,0,0,0,0,0,0,0,0,0,0,0,0,0,0,0,0,0,0,0,0,0s0,0,0,0h0s0,0,0,0c0,0,0,0,0,0,0,0,0,0,0,0,0,0,0,0,0,0,0,0,0,0,0,0,0,0,0,0,0-.1,0,0,0,0,0,0,0,0,0,0,0,0,0,0,0,0,0,0,0,0,0,0,0,0,0,0,0,0,0-.1,0,0,0,0,0,0,0,0,0,0,0,0h0s0,0,0,0c0,0,0,0,0,0,0,0,0,0,0-.1h0s0,0,0,0c0,0,0,0,0,0,0,0,0,0,0,0,0,0,0,0,0,0,0,0,0,0,0,0,0,0,0,0,0,0t0,0s0,0,0,0c0,0,0,0,0,0,0,0,.2,0,.2,0,0,0,0,0,0,0,0,0,0,0,0,0,0,0,0,0,0,0,0,0,0,0,0,0,0,0,0,0,0,0,0,0,0,0,0,0,0,0,0,0,0,0,0,0,0,0,0,0,0,0,0,0,0,0h0s0,0,0,0c0,0,0,0,0,0,0,0,0,0,0,0,0,0,0,0,0,0,0,0,.1,0,.1,0,0,0,.1,0,.2,0,0,0,0,0,0,0,0,0,0,0,0,0,0,0,0,0,0,0,0,0,0,0,0,0h0s0,0,0,0c0,0,0,0,0,0,0,0,.1,0,.2,0,0,0,0,0,0,0,0,0,0,0,.1,0,0,0,0,0,0,0,0,0,.1,0,.2,0,0,0,0,0,0,0,.1,0,.2.1.4.2,0,0,0,0,0,0,0,0,.2.1.3.2.2.1.4.2.6.4,0,0,.2,0,.2.1.2.1.3.2.5.3.1,0,.2.1.3.2,0,0,0,0,0,0,0,0,0,0,0,0,0,0,0,0,0,0,0,0,0,0,0,0,0,0,0,0,0,0,0,0,0,0,0,0,0,0,0,0,.1,0,0,0,.2.2.3.2,0,0,0,0,0,0,.1.1.2.2.3.3,0,0,.1.1.2.2h0c0,0,0,0,.1.1,0,0,0,0,0,0h0c0,0,0,.1.1.2s0,0,0,0c0,0,0,0,0,0,0,0,0,0,.1.1,0,0,0,0,0,.1,0,0,0,0,0,0,0,0,0,0,.1.1,0,0,.1.1.1.2,0,0,0,0,.1.1,0,0,0,0,0,0,0,.1.2.2.2.3,0,0,.1.2.2.2,0,0,0,0,0,0,0,0,0,0,0,0,0,0,.1.1.2.2,0,0,0,0,0,0,0,0,0,0,0,0,0,0,0,0,0,.1h0s0,0,0,0c0,0,0,0,0,0,0,0,0,0,0,0,0,0,0,.1.1.2,0,0,.1.2.1.2,0,0,0,0,0,0,0,0,0,0,0,0,0,0,0,0,0,.1,0,0,0,.1.1.2,0,0,0,0,0,0,0,0,0,0,0,0,0,0,0,.1,0,.2,0,0,0,0,0,0,0,0,0,.1,0,.2,0,0,0,0,0,0,0,0,0,.1.1.2,0,0,0,.1,0,.2,0,0,0,.2,0,.2h0s0,0,0,0c0,0,0,0,0,0,0,0,0,0,0,0,0,0,0,0,0,0,0,0,0,0,0,0,0,0,0,0,0,0,0,0,0,0,0,0,0,0,0,0,0,0,0,0,0,0,0,0Z"/>
          <path class="st18" d="M18.4,4.4s0,0,0,0c-.1,0-.3.2-.4.3-.2.2-.3.4-.4.7h0c0,.3-.2.6-.2,1,0,0,0,.1,0,.2,0,.4,0,.8.1,1.3,0,0,0,.1,0,.2,0,.2.1.5.2.8-.1-.2-.3-.4-.4-.6,0,0,0,0,0,0,0,0,0,0,0,0,0,0,0,0,0,0,0,0,0,0,0,0,0,0,0,0,0,0,0,0,0,0,0,0,0-.1-.1-.2-.2-.4,0,0,0-.1,0-.2,0,0,0,0,0,0,0,0,0,0,0-.1,0-.1,0-.2-.1-.3,0-.2,0-.3-.1-.5,0,0,0,0,0,0,0,0,0-.2,0-.2,0,0,0-.1,0-.2,0,0,0,0,0,0,0,0,0,0,0,0,0,0,0,0,0,0,0,0,0,0,0-.1,0,0,0,0,0-.1,0-.2,0-.3,0-.5h0c0-.2,0-.2,0-.2h0c0,0,0,0,0,0,0,0,0,0,0,0,0,0,0,0,0,0,0,0,0,0,0,0,0,0,0,0,0,0h0s0,0,0-.1c0,0,0,0,0,0,0,0,0,0,0,0,0,0,0,0,0,0,0,0,0,0,0,0s0,0,0,0h0s0,0,0,0c0,0,0,0,0,0,0,0,0,0,0,0,0,0,0,0,0,0,0,0,0,0,0,0,0,0,0,0,0-.1,0,0,0,0,0,0,0,0,0,0,0,0,0,0,0,0,0,0,0,0,0,0,0,0,0,0,0,0,0-.1,0,0,0,0,0,0,0,0,0,0,0,0h0s0,0,0,0c0,0,0,0,0,0,0,0,0,0,0-.1h0s0,0,0,0c0,0,0,0,0,0,0,0,0,0,0,0,0,0,0,0,0,0,0,0,0,0,0,0,0,0,0,0,0,0t0,0s0,0,0,0c0,0,0,0,0,0,0,0,.2,0,.2,0,0,0,0,0,0,0,0,0,0,0,0,0,0,0,0,0,0,0,0,0,0,0,0,0,0,0,0,0,0,0,0,0,0,0,0,0,0,0,0,0,0,0,0,0,0,0,0,0,0,0,0,0,0,0h0s0,0,0,0c0,0,0,0,0,0,0,0,0,0,0,0,0,0,0,0,0,0,0,0,0,0,0,0,0,0,.1,0,.1,0,0,0,.1,0,.2,0,0,0,0,0,0,0,0,0,0,0,0,0,0,0,0,0,0,0,0,0,0,0,0,0h0s0,0,0,0c0,0,0,0,0,0,0,0,.1,0,.2,0Z"/>
          <path class="st18" d="M17.6,8.9c-.1-.2-.3-.4-.4-.6,0,0,0,0,0,0,0,0,0,0,0,0,0,0,0,0,0,0,0,0,0,0,0,0,0,0,0,0,0,0,0,0,0,0,0,0,0-.1-.1-.2-.2-.4,0,0,0-.1,0-.2,0,0,0,0,0,0,0,0,0,0,0-.1,0-.1,0-.2-.1-.3,0-.2,0-.3-.1-.5,0,0,0,0,0,0,0,0,0-.2,0-.2,0,0,0-.1,0-.2,0,0,0,0,0,0,0,0,0,0,0,0,0,0,0,0,0,0,0,0,0,0,0-.1,0,0,0,0,0-.1,0-.2,0-.3,0-.5h0c0-.2,0-.2,0-.2h0c0,0,0,0,0,0,0,0,0,0,0,0,0,0,0,0,0,0,0,0,0,0,0,0,0,0,0,0,0,0h0s0,0,0-.1c0,0,0,0,0,0,0,0,0,0,0,0,0,0,0,0,0,0,0,0,0,0,0,0s0,0,0,0h0s0,0,0,0c0,0,0,0,0,0,0,0,0,0,0,0,0,0,0,0,0,0,0,0,0,0,0,0,0,0,0,0,0-.1,0,0,0,0,0,0,0,0,0,0,0,0,0,0,0,0,0,0,0,0,0,0,0,0,0,0,0,0,0-.1,0,0,0,0,0,0,0,0,0,0,0,0h0s0,0,0,0c0,0,0,0,0,0,0,0,0,0,0-.1h0s0,0,0,0c0,0,0,0,0,0,0,0,0,0,0,0,0,0,0,0,0,0,0,0,0,0,0,0,0,0,0,0,0,0t0,0s0,0,0,0c0,0,0,0,0,0,0,0,.2,0,.2,0,0,0,0,0,0,0,0,0,0,0,0,0,0,0,0,0,0,0h0s0,0,0,0c0,0,0,0,0,.1h0c0,.1-.2.3-.2.4,0,0,0,0,0,0,0,.2-.1.4-.1.7,0,.3,0,.6,0,.9,0,0,0,.1,0,.2,0,.2,0,.3,0,.5,0,.2.1.5.2.7,0,.2.1.3.2.5,0,.2.2.5.3.8Z"/>
          <path class="st9" d="M22.4,11.8s0,0,0,0c0,0,0,0,.1,0,.3,0,.5,0,.8,0,.4,0,.7,0,1.1-.1,0,0,.2,0,.3,0,.1,0,.2,0,.3,0,0,0,.1,0,.2,0,0,0,0,0,0-.1,0,0,0,0,0,0,0,0,0,0,0,0h0s0,0,0,0c0,0,0,0,0,0,0,0,0,0,0,0h0s0,0,0,0c0,0,0,0,0,0,0,0,0,0,0,0,0,0,0,0,0,0,0,0,0-.1,0-.2.3-2.2-.4-4.5-2.2-6-.3-.3-.7-.6-1.1-.8-.1,0-.3-.2-.4-.2-.1,0-.3-.1-.4-.2t0,0c-.4-.2-.8-.3-1.2-.4,0,0,0,0-.1,0,0,0,0,0,.1,0,.5,0,.9.2,1.4.4,0,0,.2,0,.3.1.1,0,.3.1.4.2.4.2.9.5,1.3.9,1.9,1.7,2.6,4.2,2.1,6.5h0s0,0,0,0c0,0,0,0,0,0,0,0,0,0-.1,0,0,0,0,0-.1,0,0,0,0,0,0,0,0,0-.1,0-.2,0,0,0,0,0,0,0,0,0,0,0,0,0,0,0-.1,0-.1,0,0,0,0,0-.1,0,0,0,0,0,0,0,0,0,0,0,0,0,0,0,0,0-.1,0,0,0,0,0,0,0,0,0,0,0-.1,0s0,0-.1,0c0,0,0,0,0,0,0,0,0,0,0,0h0s0,0,0,0c0,0,0,0,0,0,0,0,0,0,0,0,0,0,0,0,0,0,0,0,0,0-.1,0,0,0-.1,0-.2,0,0,0,0,0,0,0h0s0,0-.1,0c0,0,0,0-.1,0,0,0,0,0,0,0,0,0,0,0,0,0,0,0,0,0,0,0,0,0,0,0,0,0,0,0,0,0,0,0,0,0,0,0,0,0,0,0,0,0,0,0,0,0,0,0,0,0,0,0,0,0,0,0,0,0,0,0,0,0,0,0,0,0,0,0,0,0,0,0,0,0,0,0,0,0,0,0,0,0,0,0,0,0Z"/>
          <g class="st10">
            <path class="st13" d="M16.6,3.7c.2,0,.5.2.7.2.2,0,.5.2.7.3.5.2.9.4,1.4.6.2.1.5.2.7.4l.6.4c.2.1.4.3.6.4.2.2.4.3.6.5.8.7,1.5,1.4,2.1,2.2.6.8,1.1,1.7,1.4,2.7-.2-.5-.4-.9-.7-1.3-.1-.2-.3-.4-.4-.6-.1-.2-.3-.4-.4-.6-.6-.8-1.3-1.5-2.1-2.2-.8-.6-1.6-1.2-2.5-1.7-.4-.3-.9-.5-1.3-.7-.5-.2-.9-.4-1.4-.6Z"/>
          </g>
        </g>
      </g>
      <g>
        <path class="st13" d="M35.1,14.1h2.6c.5,0,1,0,1.4-.3.4-.2.7-.4.9-.7.2-.3.3-.7.3-1.2,0-.7-.2-1.2-.7-1.6-.5-.4-1.1-.6-1.9-.6h-2v11.8h2.3c.6,0,1.2-.1,1.7-.3.5-.2.9-.5,1.1-.9.3-.4.4-.9.4-1.5s0-.8-.2-1.2c-.2-.3-.4-.6-.7-.8-.3-.2-.6-.4-1-.5-.4-.1-.8-.2-1.3-.2h-2.9v-1.5h3.1c.8,0,1.5,0,2.3.3.7.2,1.3.4,1.9.8.5.4,1,.8,1.3,1.4.3.6.5,1.2.5,2s-.2,2-.7,2.7c-.5.7-1.2,1.2-2.1,1.6-.9.3-1.9.5-3.1.5h-5.2V7.6h4.9c1,0,2,.1,2.7.4.8.3,1.4.7,1.8,1.4s.7,1.4.7,2.3-.2,1.5-.7,2.1-1.1,1-1.8,1.3c-.8.3-1.7.4-2.7.4h-2.8v-1.4Z"/>
        <path class="st13" d="M49.8,7.6v13.9h6.5v2.5h-9.2V7.6h2.8Z"/>
        <path class="st13" d="M62.6,18.2v.6s-2.3,5.1-2.3,5.1h-3.1l8-17.3,8,17.3h-3.1l-2.2-5v-.7s-2.7-6.1-2.7-6.1l-2.6,6ZM61.5,17.4h7.6l.5,2.3h-8.6l.5-2.3Z"/>
        <path class="st13" d="M77.2,18.8c.5.9,1.2,1.5,2,2,.8.5,1.8.7,2.8.7s1.5-.1,2.1-.3c.6-.2,1.2-.5,1.7-.8.5-.4.9-.8,1.3-1.2v3.3c-.7.6-1.4,1-2.2,1.3-.8.3-1.8.4-3,.4s-2.3-.2-3.4-.6c-1-.4-1.9-1-2.7-1.8-.8-.8-1.4-1.7-1.8-2.7-.4-1-.6-2.2-.6-3.4s.2-2.4.6-3.4c.4-1,1-1.9,1.8-2.7.8-.8,1.7-1.3,2.7-1.8,1-.4,2.2-.6,3.4-.6s2.2.1,3,.4c.8.3,1.5.7,2.2,1.3v3.3c-.4-.4-.8-.8-1.3-1.2-.5-.4-1.1-.6-1.7-.8-.6-.2-1.3-.3-2.1-.3s-1.9.2-2.8.7c-.8.5-1.5,1.1-2,2-.5.9-.8,1.9-.8,3s.3,2.2.8,3Z"/>
        <path class="st13" d="M93.3,7.6v16.3h-2.8V7.6h2.8ZM102.7,7.6l-6.9,7.7,7.3,8.7h-3.4l-7.2-8.6,6.9-7.7h3.3Z"/>
        <path class="st13" d="M105.5,23.9h-1.3l1.9-17,6.5,12.6,6.5-12.6,1.9,17h-1.3l-1.4-12.9-5.7,11-5.7-11-1.4,12.9Z"/>
        <path class="st13" d="M126.5,17.6v.3c-.1,0-2.6,6-2.6,6h-1.4l7.2-17,7.2,17h-1.4l-2.4-5.9v-.3c-.1,0-3.3-7.8-3.3-7.8l-3.2,7.7ZM125.9,17.2h7.5l.4,1.2h-8.4l.4-1.2Z"/>
        <path class="st13" d="M152.8,7.6v17l-12.4-14.3v13.6h-1.3V6.9l12.4,14.3V7.6h1.3Z"/>
        <path class="st13" d="M164.3,15.8h7.3c0,1.1-.2,2.2-.5,3.2-.3,1-.8,1.9-1.5,2.7-.7.8-1.5,1.4-2.4,1.8-.9.5-2,.7-3.2.7s-2.2-.2-3.2-.6c-1-.4-1.9-1-2.6-1.7-.7-.7-1.3-1.6-1.7-2.7-.4-1-.6-2.1-.6-3.4s.2-2.3.6-3.4c.4-1,1-1.9,1.7-2.7.7-.7,1.6-1.3,2.6-1.7,1-.4,2.1-.6,3.2-.6s1.9.1,2.8.4c.8.3,1.6.7,2.2,1.2.7.5,1.2,1.1,1.7,1.9l-.9.8c-.5-.9-1.3-1.6-2.3-2.2s-2.1-.8-3.5-.8-2.4.3-3.5.9c-1,.6-1.8,1.4-2.4,2.5-.6,1.1-.9,2.3-.9,3.7s.3,2.6.9,3.7c.6,1.1,1.4,1.9,2.4,2.5,1,.6,2.2.9,3.5.9s1.7-.2,2.5-.5c.7-.3,1.4-.7,1.9-1.3.5-.5,1-1.2,1.3-1.9s.5-1.4.6-2.2h-5.9v-1.2Z"/>
        <path class="st13" d="M174.4,12.4c.4-1,1-1.9,1.7-2.7.7-.8,1.6-1.3,2.6-1.8,1-.4,2.1-.6,3.2-.6s2.2.2,3.2.6c1,.4,1.8,1,2.6,1.8.7.8,1.3,1.6,1.7,2.7.4,1,.6,2.1.6,3.3s-.2,2.3-.6,3.3c-.4,1-1,1.9-1.7,2.7-.7.8-1.6,1.3-2.6,1.8-1,.4-2.1.6-3.2.6s-2.2-.2-3.2-.6c-1-.4-1.8-1-2.6-1.8-.7-.8-1.3-1.6-1.7-2.7-.4-1-.6-2.1-.6-3.3s.2-2.3.6-3.3ZM176,19.4c.6,1.1,1.4,1.9,2.4,2.5,1,.6,2.2.9,3.5.9s2.5-.3,3.5-.9c1-.6,1.8-1.5,2.4-2.5.6-1.1.9-2.3.9-3.6s-.3-2.6-.9-3.7c-.6-1.1-1.4-1.9-2.4-2.5-1-.6-2.2-.9-3.5-.9s-2.5.3-3.5.9c-1,.6-1.8,1.5-2.4,2.5-.6,1.1-.9,2.3-.9,3.7s.3,2.6.9,3.6Z"/>
      </g>
    </g>
  </g>
</svg>